HIERARCHY
ROOT SpineBase
{
  OFFSET 0.000000 0.000000 0.000000
  CHANNELS 6 Xposition Yposition Zposition Zrotation Xrotation Yrotation
  JOINT SpineMid
  {
    OFFSET 0.000000 22.816025 0.000000
    CHANNELS 3 Zrotation Xrotation Yrotation
    JOINT SpineShoulder
    {
      OFFSET -0.000739 17.165092 -0.557117
      CHANNELS 3 Zrotation Xrotation Yrotation
      JOINT Neck
      {
        OFFSET 0.014416 5.769567 -0.456473
        CHANNELS 3 Zrotation Xrotation Yrotation
        JOINT Head
        {
          OFFSET -1.932673 11.711244 1.840191
          CHANNELS 3 Zrotation Xrotation Yrotation
          End Site
          {
            OFFSET 0 0 0
          }
        }
      }
      JOINT ShoulderLeft
      {
        OFFSET -11.993907 -3.936575 4.862924
        CHANNELS 3 Zrotation Xrotation Yrotation
        JOINT ElbowLeft
        {
          OFFSET -5.537678 -22.646281 -2.180988
          CHANNELS 3 Zrotation Xrotation Yrotation
          JOINT WristLeft
          {
            OFFSET -3.052845 -7.321650 -16.351525
            CHANNELS 3 Zrotation Xrotation Yrotation
            JOINT HandLeft
            {
              OFFSET 0.059551 -0.521102 -2.819298
              CHANNELS 3 Zrotation Xrotation Yrotation
              JOINT HandTipLeft
              {
                OFFSET -2.171776 -1.186016 -8.343548
                CHANNELS 3 Zrotation Xrotation Yrotation
                End Site
                {
                  OFFSET 0 0 0
                }
              }
              JOINT ThumbLeft
              {
                OFFSET -2.378641 2.998783 -1.270739
                CHANNELS 3 Zrotation Xrotation Yrotation
                End Site
                {
                  OFFSET 0 0 0
                }
              }
            }
          }
        }
      }
      JOINT ShoulderRight
      {
        OFFSET 9.057889 -1.864023 -8.387173
        CHANNELS 3 Zrotation Xrotation Yrotation
        JOINT ElbowRight
        {
          OFFSET 0.456446 -18.321157 -6.304287
          CHANNELS 3 Zrotation Xrotation Yrotation
          JOINT WristRight
          {
            OFFSET -11.122409 -16.053017 -15.714513
            CHANNELS 3 Zrotation Xrotation Yrotation
            JOINT HandRight
            {
              OFFSET -4.072979 -2.155005 -2.056681
              CHANNELS 3 Zrotation Xrotation Yrotation
              JOINT HandTipRight
              {
                OFFSET -2.361653 -4.129537 -0.982589
                CHANNELS 3 Zrotation Xrotation Yrotation
                End Site
                {
                  OFFSET 0 0 0
                }
              }
              JOINT ThumbRight
              {
                OFFSET -2.409141 2.033817 -3.179921
                CHANNELS 3 Zrotation Xrotation Yrotation
                End Site
                {
                  OFFSET 0 0 0
                }
              }
            }
          }
        }
      }
    }
  }
  JOINT HipLeft
  {
    OFFSET -4.848184 0.866799 -0.102177
    CHANNELS 3 Zrotation Xrotation Yrotation
    JOINT KneeLeft
    {
      OFFSET -24.734899 -2.255543 -25.945240
      CHANNELS 3 Zrotation Xrotation Yrotation
      JOINT AnkleLeft
      {
        OFFSET 1.008733 -37.569380 -0.538948
        CHANNELS 3 Zrotation Xrotation Yrotation
        JOINT FootLeft
        {
          OFFSET 1.097451 -1.136207 -8.667712
          CHANNELS 3 Zrotation Xrotation Yrotation
          End Site
          {
            OFFSET 0 0 0
          }
        }
      }
    }
  }
  JOINT HipRight
  {
    OFFSET 4.562218 1.711717 -5.641919
    CHANNELS 3 Zrotation Xrotation Yrotation
    JOINT KneeRight
    {
      OFFSET -21.705963 1.565510 -27.210745
      CHANNELS 3 Zrotation Xrotation Yrotation
      JOINT AnkleRight
      {
        OFFSET -0.327453 -33.702163 -2.860804
        CHANNELS 3 Zrotation Xrotation Yrotation
        JOINT FootRight
        {
          OFFSET -4.468015 -2.667902 -9.117621
          CHANNELS 3 Zrotation Xrotation Yrotation
          End Site
          {
            OFFSET 0 0 0
          }
        }
      }
    }
  }
}
MOTION
Frames: 13
Frame Time: 0.033333
12.987652 42.026620 360.258810 19.820134 -23.032896 29.104557 -0.263792 0.387338 -24.378917 -0.478533 0.646546 0.871400 -9.086593 24.876579 -2.430871 0.000000 0.000000 0.000000 -7.626686 10.488769 1.277408 -1.826921 -27.095657 -13.538065 -10.834581 8.307036 19.595739 15.126073 -42.121128 -3.849347 0.000000 0.000000 0.000000 0.000000 0.000000 0.000000 9.278183 -7.924100 -13.149101 -30.610363 7.277194 31.410284 2.517492 20.916502 -19.324188 -11.497872 13.762104 -0.441233 0.000000 0.000000 0.000000 0.000000 0.000000 0.000000 -6.750981 26.766882 -22.927276 4.142869 -4.838955 -0.627015 -7.171069 -7.197760 -39.319870 0.000000 0.000000 0.000000 -5.258406 19.998824 -25.696503 2.303750 -3.362953 1.175154 -2.219693 2.732301 -8.026652 0.000000 0.000000 0.000000
12.499798 44.272410 359.494965 20.799914 -23.017963 26.910978 -0.394696 0.247184 -21.914674 -0.490841 0.564943 0.924219 -10.431653 24.344616 -2.141718 0.000000 0.000000 0.000000 -5.910498 8.121494 1.346594 -4.002603 -20.981215 -20.136802 -12.534220 7.596851 21.979443 23.334615 -47.378113 8.219656 0.000000 0.000000 0.000000 0.000000 0.000000 0.000000 7.037719 -8.924771 -12.154438 -28.990831 8.844184 31.181248 4.051893 21.901201 -22.667032 -8.486621 8.961312 2.362831 0.000000 0.000000 0.000000 0.000000 0.000000 0.000000 -7.227430 23.284213 -19.188599 1.996834 -2.022678 -2.300280 -8.412892 -8.660911 -41.069190 0.000000 0.000000 0.000000 -6.006155 15.502221 -25.491248 -1.127466 -0.254415 3.567132 -1.297012 3.256894 -8.624277 0.000000 0.000000 0.000000
11.667995 47.314405 358.542190 21.640626 -22.820588 28.515570 -0.463725 0.396633 -23.350397 -0.731679 0.588808 0.979058 -14.393237 23.414724 -0.280632 0.000000 0.000000 0.000000 -3.274752 4.605036 1.570528 -6.722299 -16.862826 -23.298984 -13.601065 7.639801 22.020578 26.636403 -47.168031 12.814157 0.000000 0.000000 0.000000 0.000000 0.000000 0.000000 5.926131 -10.371268 -11.465050 -27.024985 9.311202 30.943810 7.153282 20.443676 -24.861205 -13.010981 7.180486 4.673062 0.000000 0.000000 0.000000 0.000000 0.000000 0.000000 -4.783646 17.200079 -22.009652 -1.767767 3.131780 -1.859880 -9.729889 -9.607845 -39.170040 0.000000 0.000000 0.000000 -5.041021 10.308731 -27.014057 -4.146203 4.666049 3.469616 -2.017918 2.761175 -8.728372 0.000000 0.000000 0.000000
10.720511 50.717776 357.485744 21.026452 -21.679199 25.921645 -0.629784 0.554465 -21.110546 -0.820528 0.527709 0.958980 -14.410632 21.202303 -0.176211 0.000000 0.000000 0.000000 1.329361 -0.328986 1.977438 -10.380560 -13.550717 -23.889660 -13.645864 7.077995 21.736465 20.273947 -38.912368 5.390552 0.000000 0.000000 0.000000 0.000000 0.000000 0.000000 4.340497 -11.417318 -10.011532 -22.252253 8.852108 28.920659 10.109874 18.410588 -26.052720 -18.713785 6.303297 6.498647 0.000000 0.000000 0.000000 0.000000 0.000000 0.000000 -2.310753 7.934718 -21.759133 -8.065127 9.049128 0.190223 -10.151071 -11.445455 -35.160749 0.000000 0.000000 0.000000 -3.600331 2.042102 -25.184435 -8.676806 11.383482 4.173944 -2.631728 3.765842 -11.414960 0.000000 0.000000 0.000000
9.602224 54.271224 356.389197 19.593040 -20.364572 21.426313 -0.505695 0.402661 -17.202655 -0.607841 0.332789 0.908052 -14.538110 20.496487 0.185334 0.000000 0.000000 0.000000 5.003114 -4.592151 2.791493 -13.174556 -12.102437 -22.910560 -12.236340 3.620424 18.493925 16.667225 -21.959172 5.776602 0.000000 0.000000 0.000000 0.000000 0.000000 0.000000 1.884587 -11.293899 -8.345497 -15.109019 7.242904 24.698415 9.649364 18.046260 -23.433026 -19.702999 6.677750 5.836348 0.000000 0.000000 0.000000 0.000000 0.000000 0.000000 2.449669 -3.957526 -18.992779 -16.937503 16.377721 3.288462 -10.215517 -13.386238 -31.288136 0.000000 0.000000 0.000000 -0.139208 -8.524083 -21.634710 -15.469281 19.283448 6.300480 -2.731405 3.699922 -11.482526 0.000000 0.000000 0.000000
8.330076 57.570069 355.370319 17.553332 -18.796032 16.069557 -0.427382 0.448613 -12.566794 -0.525145 0.319836 0.810731 -13.321618 19.393496 0.187610 0.000000 0.000000 0.000000 8.301594 -8.353061 3.726218 -14.878521 -13.165592 -19.603775 -13.179415 7.624433 14.607474 16.733706 -16.376706 12.136214 0.000000 0.000000 0.000000 0.000000 0.000000 0.000000 1.287455 -12.572823 -7.158831 -8.623603 5.608919 20.211874 8.154080 16.034052 -14.682943 -21.636667 11.968140 0.973019 0.000000 0.000000 0.000000 0.000000 0.000000 0.000000 9.831890 -15.922297 -14.180085 -26.480161 23.944220 7.714592 -10.827769 -16.294293 -25.790093 0.000000 0.000000 0.000000 5.365772 -18.689133 -16.854268 -23.196504 26.207629 10.024890 -2.947215 2.836632 -7.230548 0.000000 0.000000 0.000000
6.964351 60.743712 354.339184 15.096071 -17.046930 12.645493 -0.318841 0.441987 -9.892563 -0.343225 0.255171 0.697401 -11.131913 18.854206 -0.025761 0.000000 0.000000 0.000000 10.609007 -11.334913 4.675464 -15.199101 -15.732243 -13.731119 -12.974585 10.829724 9.049648 14.925623 -10.131662 12.676064 0.000000 0.000000 0.000000 0.000000 0.000000 0.000000 1.348349 -13.248362 -6.286213 -2.361749 2.448900 16.152475 8.256422 14.265025 -6.936748 -23.062042 19.120088 -4.606519 0.000000 0.000000 0.000000 0.000000 0.000000 0.000000 18.679209 -26.488047 -9.681759 -35.912723 30.686907 13.002729 -10.850364 -17.603912 -19.402114 0.000000 0.000000 0.000000 12.443795 -28.482712 -12.733882 -31.924321 31.831881 15.003330 -2.005188 0.644573 -3.208677 0.000000 0.000000 0.000000
5.570052 63.639011 353.332852 12.488275 -15.402914 13.433504 -0.130729 0.383831 -11.356803 -0.187437 0.251621 0.578330 -8.368419 18.091882 -0.400739 0.000000 0.000000 0.000000 11.280437 -12.809863 5.177561 -13.323514 -20.811463 -4.005310 -11.842099 13.531597 -0.171349 13.815351 -4.184589 12.025194 0.000000 0.000000 0.000000 0.000000 0.000000 0.000000 1.973019 -13.654201 -5.651219 3.824800 -1.391210 11.902915 8.750142 13.713834 -0.810764 -23.480925 26.031516 -9.996764 0.000000 0.000000 0.000000 0.000000 0.000000 0.000000 25.656437 -36.177543 -8.855432 -43.760511 35.196807 18.329169 -11.744855 -20.722438 -11.413192 0.000000 0.000000 0.000000 18.299543 -37.808658 -11.766674 -40.116901 36.353822 19.956028 -0.113271 -4.047938 1.150586 0.000000 0.000000 0.000000
4.285478 65.773745 352.538178 9.806416 -13.671057 14.742420 -0.000957 0.438215 -13.278281 -0.071900 0.381728 0.445575 -4.700074 17.346099 -0.933157 0.000000 0.000000 0.000000 10.303140 -13.186285 5.240149 -9.649007 -26.979743 -2.480782 -13.298183 9.721618 -6.214230 13.094139 5.453651 12.172405 0.000000 0.000000 0.000000 0.000000 0.000000 0.000000 3.443819 -14.588630 -5.194417 6.377657 -3.288354 10.047284 11.055321 12.265308 1.020571 -23.916772 27.501593 -11.608281 0.000000 0.000000 0.000000 0.000000 0.000000 0.000000 31.151998 -43.868642 -8.075822 -49.077641 38.188692 22.175779 -12.306263 -22.294223 -4.778970 0.000000 0.000000 0.000000 22.707425 -45.512171 -11.579484 -46.461548 38.849088 24.479539 2.840347 -9.954608 6.285846 0.000000 0.000000 0.000000
3.070669 67.901604 352.077649 7.620634 -12.287733 15.152551 -0.077282 0.478616 -14.101945 -0.165919 0.405966 0.346911 -1.954808 15.842231 -1.158397 0.000000 0.000000 0.000000 10.655045 -14.316538 5.577720 -7.973134 -27.673440 -2.887270 -14.651254 3.962751 -11.199934 12.207077 13.334273 14.772180 0.000000 0.000000 0.000000 0.000000 0.000000 0.000000 3.920405 -13.914205 -4.513470 10.220031 -6.792164 8.105984 14.218218 11.440735 -2.184731 -24.355227 24.904739 -9.565961 0.000000 0.000000 0.000000 0.000000 0.000000 0.000000 36.600816 -49.063408 -5.471228 -53.273221 39.771298 24.956889 -11.455286 -16.906635 -0.754742 0.000000 0.000000 0.000000 26.383687 -51.509724 -11.337743 -52.409633 39.891386 29.756152 7.622274 -16.868841 11.204139 0.000000 0.000000 0.000000
2.035766 69.616452 351.710202 5.591012 -10.962432 17.905681 -0.112595 0.532565 -17.195344 -0.153415 0.563178 0.245827 1.193107 14.663236 -1.490429 0.000000 0.000000 0.000000 10.796672 -15.117625 5.729750 -6.920433 -26.176332 -7.097215 -14.234942 5.004478 -9.097683 13.400232 6.680247 13.073489 0.000000 0.000000 0.000000 0.000000 0.000000 0.000000 4.562617 -13.318681 -3.946038 12.139790 -9.140418 7.345840 14.079309 12.186988 -6.663564 -22.357743 19.616709 -5.652450 0.000000 0.000000 0.000000 0.000000 0.000000 0.000000 38.792890 -54.061125 -5.718939 -55.576409 41.395712 26.189214 -11.574936 -15.043346 1.105629 0.000000 0.000000 0.000000 26.891477 -57.687454 -14.231698 -57.002448 40.513671 33.840115 12.584417 -23.111514 15.674262 0.000000 0.000000 0.000000
1.328876 71.365398 351.123611 4.019913 -9.451766 21.333738 -0.074563 0.305947 -20.872216 -0.145093 0.694502 0.176056 3.035483 13.253603 -1.526677 0.000000 0.000000 0.000000 10.579241 -15.673165 5.765930 -5.579825 -26.023903 -6.767085 -14.257913 11.932334 -13.199178 18.225844 -2.767299 22.068571 0.000000 0.000000 0.000000 0.000000 0.000000 0.000000 5.670249 -13.440057 -3.691571 11.475483 -9.140822 7.328696 14.915541 11.054001 -8.133873 -19.141721 17.198750 -5.111750 0.000000 0.000000 0.000000 0.000000 0.000000 0.000000 39.941145 -58.560618 -5.444310 -57.342649 43.757515 26.163129 -11.775435 -15.024831 0.902138 0.000000 0.000000 0.000000 24.960072 -63.657374 -18.624103 -61.234676 40.993726 37.462667 16.871541 -27.849509 18.044469 0.000000 0.000000 0.000000
0.409219 72.945858 350.458543 2.508988 -7.836130 25.264635 0.148743 -0.019657 -25.018325 -0.381166 0.919354 0.117594 3.374878 11.087300 -1.100806 0.000000 0.000000 0.000000 10.842358 -16.581198 5.883159 -4.612955 -25.899860 -5.745708 -13.157071 17.316249 -12.684910 19.443145 -10.358274 20.740813 0.000000 0.000000 0.000000 0.000000 0.000000 0.000000 6.831563 -12.788882 -3.451844 11.232376 -10.792248 8.060647 16.757901 9.627634 -10.242643 -22.529642 15.680230 -1.366967 0.000000 0.000000 0.000000 0.000000 0.000000 0.000000 38.234092 -64.000648 -9.027521 -59.779480 44.308135 28.267384 -11.272934 -12.818067 1.784842 0.000000 0.000000 0.000000 20.893037 -69.171129 -24.237077 -63.861953 42.306961 39.138901 18.042635 -30.128891 17.850624 0.000000 0.000000 0.000000
